<svg xmlns="http://www.w3.org/2000/svg" width="1024" height="1024" viewBox="0 0 1024 1024">
  <defs>
    <linearGradient id="bg" x1="0" y1="0" x2="1024" y2="1024" gradientUnits="userSpaceOnUse">
      <stop offset="0%" stop-color="#f59e0b"/>
      <stop offset="100%" stop-color="#f97316"/>
    </linearGradient>
    <linearGradient id="fur" x1="0" y1="-220" x2="0" y2="260" gradientUnits="userSpaceOnUse">
      <stop offset="0%" stop-color="#fb923c"/>
      <stop offset="100%" stop-color="#ea580c"/>
    </linearGradient>
  </defs>

  <rect width="1024" height="1024" rx="228" fill="url(#bg)"/>

  <g transform="translate(512 528)">
    <circle cx="-182" cy="-178" r="110" fill="#292524"/>
    <circle cx="182" cy="-178" r="110" fill="#292524"/>
    <circle cx="-182" cy="-178" r="62" fill="#fde7d7"/>
    <circle cx="182" cy="-178" r="62" fill="#fde7d7"/>

    <ellipse cx="0" cy="8" rx="286" ry="258" fill="url(#fur)"/>
    <ellipse cx="0" cy="68" rx="214" ry="186" fill="#fff7ed"/>
    <ellipse cx="0" cy="-132" rx="120" ry="86" fill="#f7b083"/>

    <ellipse cx="-116" cy="-8" rx="88" ry="68" fill="#292524"/>
    <ellipse cx="116" cy="-8" rx="88" ry="68" fill="#292524"/>

    <circle cx="-114" cy="-6" r="30" fill="#ffffff"/>
    <circle cx="114" cy="-6" r="30" fill="#ffffff"/>
    <circle cx="-114" cy="-6" r="15" fill="#0f172a"/>
    <circle cx="114" cy="-6" r="15" fill="#0f172a"/>
    <circle cx="-124" cy="-16" r="5" fill="#ffffff" opacity="0.85"/>
    <circle cx="104" cy="-16" r="5" fill="#ffffff" opacity="0.85"/>

    <ellipse cx="0" cy="84" rx="38" ry="28" fill="#292524"/>
    <path d="M -38 112 Q 0 146 38 112" fill="none" stroke="#7c2d12" stroke-width="14" stroke-linecap="round"/>

    <path d="M -74 100 Q -122 96 -164 118" fill="none" stroke="#fff7ed" stroke-width="10" stroke-linecap="round"/>
    <path d="M -70 124 Q -124 128 -166 152" fill="none" stroke="#fff7ed" stroke-width="10" stroke-linecap="round"/>
    <path d="M 74 100 Q 122 96 164 118" fill="none" stroke="#fff7ed" stroke-width="10" stroke-linecap="round"/>
    <path d="M 70 124 Q 124 128 166 152" fill="none" stroke="#fff7ed" stroke-width="10" stroke-linecap="round"/>

    <ellipse cx="-130" cy="146" rx="38" ry="20" fill="#fdba74" opacity="0.45"/>
    <ellipse cx="130" cy="146" rx="38" ry="20" fill="#fdba74" opacity="0.45"/>
  </g>
</svg>
