<svg xmlns="http://www.w3.org/2000/svg" width="1024" height="1024" viewBox="0 0 1024 1024">
  <defs>
    <linearGradient id="bg" x1="0" y1="0" x2="1024" y2="1024" gradientUnits="userSpaceOnUse">
      <stop offset="0%" stop-color="#fb923c"/>
      <stop offset="100%" stop-color="#f97316"/>
    </linearGradient>
    <linearGradient id="fur" x1="0" y1="-360" x2="0" y2="360" gradientUnits="userSpaceOnUse">
      <stop offset="0%" stop-color="#fb923c"/>
      <stop offset="100%" stop-color="#ea580c"/>
    </linearGradient>
    <linearGradient id="innerFur" x1="0" y1="-240" x2="0" y2="360" gradientUnits="userSpaceOnUse">
      <stop offset="0%" stop-color="#fff7ed"/>
      <stop offset="100%" stop-color="#ffedd5"/>
    </linearGradient>
  </defs>

  <rect width="1024" height="1024" rx="228" fill="url(#bg)"/>

  <g transform="translate(512 560)">
    <circle cx="-246" cy="-286" r="136" fill="#262626"/>
    <circle cx="246" cy="-286" r="136" fill="#262626"/>
    <circle cx="-246" cy="-286" r="80" fill="#fef3e2"/>
    <circle cx="246" cy="-286" r="80" fill="#fef3e2"/>

    <ellipse cx="0" cy="0" rx="392" ry="360" fill="url(#fur)"/>
    <ellipse cx="0" cy="82" rx="302" ry="278" fill="url(#innerFur)"/>

    <ellipse cx="0" cy="-204" rx="166" ry="110" fill="#f8b788"/>

    <ellipse cx="-170" cy="-42" rx="128" ry="106" fill="#262626"/>
    <ellipse cx="170" cy="-42" rx="128" ry="106" fill="#262626"/>

    <circle cx="-168" cy="-36" r="44" fill="#ffffff"/>
    <circle cx="168" cy="-36" r="44" fill="#ffffff"/>
    <circle cx="-168" cy="-36" r="20" fill="#0f172a"/>
    <circle cx="168" cy="-36" r="20" fill="#0f172a"/>
    <circle cx="-182" cy="-50" r="7" fill="#ffffff" opacity="0.9"/>
    <circle cx="154" cy="-50" r="7" fill="#ffffff" opacity="0.9"/>

    <path d="M -54 114 C -20 92 20 92 54 114 C 20 158 -20 158 -54 114 Z" fill="#262626"/>
    <path d="M -78 150 Q 0 224 78 150" fill="none" stroke="#7c2d12" stroke-width="18" stroke-linecap="round"/>

    <path d="M -94 120 Q -170 108 -236 148" fill="none" stroke="#fff7ed" stroke-width="14" stroke-linecap="round"/>
    <path d="M -90 160 Q -170 168 -238 212" fill="none" stroke="#fff7ed" stroke-width="14" stroke-linecap="round"/>
    <path d="M 94 120 Q 170 108 236 148" fill="none" stroke="#fff7ed" stroke-width="14" stroke-linecap="round"/>
    <path d="M 90 160 Q 170 168 238 212" fill="none" stroke="#fff7ed" stroke-width="14" stroke-linecap="round"/>

    <ellipse cx="-194" cy="212" rx="50" ry="28" fill="#fdba74" opacity="0.48"/>
    <ellipse cx="194" cy="212" rx="50" ry="28" fill="#fdba74" opacity="0.48"/>

    <ellipse cx="-180" cy="326" rx="116" ry="90" fill="#fff7ed" opacity="0.96"/>
    <ellipse cx="180" cy="326" rx="116" ry="90" fill="#fff7ed" opacity="0.96"/>
    <circle cx="-210" cy="318" r="12" fill="#f8b788"/>
    <circle cx="-180" cy="350" r="12" fill="#f8b788"/>
    <circle cx="-150" cy="318" r="12" fill="#f8b788"/>
    <circle cx="150" cy="318" r="12" fill="#f8b788"/>
    <circle cx="180" cy="350" r="12" fill="#f8b788"/>
    <circle cx="210" cy="318" r="12" fill="#f8b788"/>
  </g>
</svg>
